<svg xmlns="http://www.w3.org/2000/svg" viewBox="0 0 32 32" fill="none">
  
  <defs>
    <linearGradient id="bash-bg" x1="0" y1="0" x2="0" y2="1">
      <stop offset="0%" stop-color="#374151"/>
      <stop offset="100%" stop-color="#0f172a"/>
    </linearGradient>
    <linearGradient id="bash-steel" x1="0" y1="0" x2="1" y2="1">
      <stop offset="0%" stop-color="#f8fafc"/>
      <stop offset="40%" stop-color="#cbd5e1"/>
      <stop offset="100%" stop-color="#64748b"/>
    </linearGradient>
    <linearGradient id="bash-gold" x1="0" y1="0" x2="0" y2="1">
      <stop offset="0%" stop-color="#fde68a"/>
      <stop offset="55%" stop-color="#d97706"/>
      <stop offset="100%" stop-color="#92400e"/>
    </linearGradient>
    <linearGradient id="bash-fire" x1="0" y1="1" x2="0" y2="0">
      <stop offset="0%" stop-color="#dc2626"/>
      <stop offset="50%" stop-color="#f97316"/>
      <stop offset="100%" stop-color="#fde047"/>
    </linearGradient>
    <linearGradient id="bash-holy" x1="0" y1="0" x2="0" y2="1">
      <stop offset="0%" stop-color="#fff"/>
      <stop offset="45%" stop-color="#fef08a"/>
      <stop offset="100%" stop-color="#ca8a04"/>
    </linearGradient>
    <linearGradient id="bash-wood" x1="0" y1="0" x2="1" y2="1">
      <stop offset="0%" stop-color="#a16207"/>
      <stop offset="100%" stop-color="#451a03"/>
    </linearGradient>
    <radialGradient id="bash-gem" cx="35%" cy="30%" r="70%">
      <stop offset="0%" stop-color="#e0e7ff"/>
      <stop offset="50%" stop-color="#6366f1"/>
      <stop offset="100%" stop-color="#312e81"/>
    </radialGradient>
    <filter id="bash-glow" x="-30%" y="-30%" width="160%" height="160%">
      <feGaussianBlur stdDeviation="0.8" result="b"/>
      <feMerge><feMergeNode in="b"/><feMergeNode in="SourceGraphic"/></feMerge>
    </filter>
  </defs>
  <rect width="32" height="32" rx="5" fill="url(#bash-bg)"/>
  <rect x="1" y="1" width="30" height="30" rx="4" fill="none" stroke="#ea580c" stroke-opacity="0.45" stroke-width="0.6"/>
  <path d="M3 27 Q16 23 29 27" stroke="#000" stroke-opacity="0.3" stroke-width="1" fill="none"/>
  <path d="M14 7 L18 7 L17 20 L16 22 L15 20 Z" fill="url(#bash-steel)"/>
  <rect x="11" y="20" width="10" height="2.5" fill="url(#bash-gold)"/>
  <path d="M6 10 L12 16 L8 20 L4 14 Z" fill="url(#bash-fire)" filter="url(#bash-glow)"/>
  <path d="M20 8 L26 14 L22 18 L16 12 Z" fill="#fbbf24" opacity="0.5"/>
  <circle cx="24" cy="9" r="2" fill="#fde047" opacity="0.8"/>
  </svg>