<svg xmlns="http://www.w3.org/2000/svg" viewBox="0 0 32 32" fill="none">
  
  <defs>
    <linearGradient id="doublestrafe-bg" x1="0" y1="0" x2="0" y2="1">
      <stop offset="0%" stop-color="#3d3258"/>
      <stop offset="55%" stop-color="#2a2240"/>
      <stop offset="100%" stop-color="#12101c"/>
    </linearGradient>
    <linearGradient id="doublestrafe-steel" x1="0" y1="0" x2="1" y2="1">
      <stop offset="0%" stop-color="#f8fafc"/>
      <stop offset="40%" stop-color="#cbd5e1"/>
      <stop offset="100%" stop-color="#64748b"/>
    </linearGradient>
    <linearGradient id="doublestrafe-gold" x1="0" y1="0" x2="0" y2="1">
      <stop offset="0%" stop-color="#fde68a"/>
      <stop offset="55%" stop-color="#d97706"/>
      <stop offset="100%" stop-color="#92400e"/>
    </linearGradient>
    <linearGradient id="doublestrafe-fire" x1="0" y1="1" x2="0" y2="0">
      <stop offset="0%" stop-color="#dc2626"/>
      <stop offset="50%" stop-color="#f97316"/>
      <stop offset="100%" stop-color="#fde047"/>
    </linearGradient>
    <linearGradient id="doublestrafe-holy" x1="0" y1="0" x2="0" y2="1">
      <stop offset="0%" stop-color="#fff"/>
      <stop offset="45%" stop-color="#fef08a"/>
      <stop offset="100%" stop-color="#ca8a04"/>
    </linearGradient>
    <linearGradient id="doublestrafe-wood" x1="0" y1="0" x2="1" y2="1">
      <stop offset="0%" stop-color="#a16207"/>
      <stop offset="100%" stop-color="#451a03"/>
    </linearGradient>
    <radialGradient id="doublestrafe-gem" cx="35%" cy="30%" r="70%">
      <stop offset="0%" stop-color="#e0e7ff"/>
      <stop offset="50%" stop-color="#6366f1"/>
      <stop offset="100%" stop-color="#312e81"/>
    </radialGradient>
    <filter id="doublestrafe-glow" x="-30%" y="-30%" width="160%" height="160%">
      <feGaussianBlur stdDeviation="0.8" result="b"/>
      <feMerge><feMergeNode in="b"/><feMergeNode in="SourceGraphic"/></feMerge>
    </filter>
  </defs>
  <rect width="32" height="32" rx="2" fill="#0a0812"/>
  <rect x="1" y="1" width="30" height="30" rx="1" fill="url(#doublestrafe-bg)"/>
  <rect x="1" y="1" width="30" height="30" rx="1" fill="none" stroke="#6b5a8f" stroke-opacity="0.55" stroke-width="0.5"/>
  <rect x="1.5" y="1.5" width="29" height="29" rx="1" fill="none" stroke="#b45309" stroke-opacity="0.35" stroke-width="0.4"/>
  <path d="M2 29 L30 29" stroke="#000" stroke-opacity="0.35" stroke-width="0.8"/>
  <path d="M6 20 L20 10 L18 12 L22 8 L20 14" stroke="url(#doublestrafe-steel)" stroke-width="1.2" fill="none"/>
  <path d="M10 24 L24 14 L22 16 L26 12 L24 18" stroke="url(#doublestrafe-gold)" stroke-width="1.2" fill="none"/>
  <path d="M8 24 Q16 12 24 24" stroke="#a16207" stroke-width="1" fill="none"/>
  </svg>