<svg xmlns="http://www.w3.org/2000/svg" viewBox="0 0 32 32" fill="none">
  
  <defs>
    <linearGradient id="maingauche-bg" x1="0" y1="0" x2="0" y2="1">
      <stop offset="0%" stop-color="#374151"/>
      <stop offset="100%" stop-color="#111827"/>
    </linearGradient>
    <linearGradient id="maingauche-steel" x1="0" y1="0" x2="1" y2="1">
      <stop offset="0%" stop-color="#f8fafc"/>
      <stop offset="35%" stop-color="#cbd5e1"/>
      <stop offset="70%" stop-color="#94a3b8"/>
      <stop offset="100%" stop-color="#64748b"/>
    </linearGradient>
    <linearGradient id="maingauche-steel-dark" x1="0" y1="0" x2="1" y2="0">
      <stop offset="0%" stop-color="#475569"/>
      <stop offset="50%" stop-color="#e2e8f0"/>
      <stop offset="100%" stop-color="#334155"/>
    </linearGradient>
    <linearGradient id="maingauche-gold" x1="0" y1="0" x2="0" y2="1">
      <stop offset="0%" stop-color="#fde68a"/>
      <stop offset="50%" stop-color="#d97706"/>
      <stop offset="100%" stop-color="#92400e"/>
    </linearGradient>
    <linearGradient id="maingauche-wood" x1="0" y1="0" x2="1" y2="1">
      <stop offset="0%" stop-color="#a16207"/>
      <stop offset="100%" stop-color="#451a03"/>
    </linearGradient>
    <linearGradient id="maingauche-leather" x1="0" y1="0" x2="0" y2="1">
      <stop offset="0%" stop-color="#78716c"/>
      <stop offset="100%" stop-color="#292524"/>
    </linearGradient>
    <linearGradient id="maingauche-cloth" x1="0" y1="0" x2="0" y2="1">
      <stop offset="0%" stop-color="#f5f5f4"/>
      <stop offset="100%" stop-color="#a8a29e"/>
    </linearGradient>
    <radialGradient id="maingauche-gem" cx="40%" cy="35%" r="65%">
      <stop offset="0%" stop-color="#e9d5ff"/>
      <stop offset="45%" stop-color="#a78bfa"/>
      <stop offset="100%" stop-color="#5b21b6"/>
    </radialGradient>
    <filter id="maingauche-glow" x="-20%" y="-20%" width="140%" height="140%">
      <feGaussianBlur stdDeviation="0.6" result="b"/>
      <feMerge><feMergeNode in="b"/><feMergeNode in="SourceGraphic"/></feMerge>
    </filter>
  </defs>
  <rect width="32" height="32" rx="5" fill="url(#maingauche-bg)"/>
  <rect x="1" y="1" width="30" height="30" rx="4" fill="none" stroke="#94a3b8" stroke-opacity="0.35" stroke-width="0.5"/>
  <path d="M4 28 Q16 24 28 28" stroke="#000" stroke-opacity="0.25" stroke-width="1" fill="none"/>
  <path d="M16 5 L20 18 L14 20 L10 8 Z" fill="url(#maingauche-steel)"/>
  <path d="M16 5 L20 18 L14 20 L10 8 Z" fill="#fff" opacity="0.2" transform="translate(-1,-1)"/>
  <path d="M9 17 L23 17 L22 19 L10 19 Z" fill="url(#maingauche-gold)"/>
  <rect x="12" y="20" width="7" height="2.5" rx="0.5" fill="url(#maingauche-gold)"/>
  <rect x="13" y="22.5" width="5" height="4" rx="1" fill="url(#maingauche-leather)"/>
  <path d="M13.5 23 H17" stroke="#292524" stroke-width="0.5"/>
  </svg>