<svg xmlns="http://www.w3.org/2000/svg" viewBox="0 0 32 32" fill="none">
  
  <defs>
    <linearGradient id="saber-bg" x1="0" y1="0" x2="0" y2="1">
      <stop offset="0%" stop-color="#374151"/>
      <stop offset="100%" stop-color="#111827"/>
    </linearGradient>
    <linearGradient id="saber-steel" x1="0" y1="0" x2="1" y2="1">
      <stop offset="0%" stop-color="#f8fafc"/>
      <stop offset="35%" stop-color="#cbd5e1"/>
      <stop offset="70%" stop-color="#94a3b8"/>
      <stop offset="100%" stop-color="#64748b"/>
    </linearGradient>
    <linearGradient id="saber-steel-dark" x1="0" y1="0" x2="1" y2="0">
      <stop offset="0%" stop-color="#475569"/>
      <stop offset="50%" stop-color="#e2e8f0"/>
      <stop offset="100%" stop-color="#334155"/>
    </linearGradient>
    <linearGradient id="saber-gold" x1="0" y1="0" x2="0" y2="1">
      <stop offset="0%" stop-color="#fde68a"/>
      <stop offset="50%" stop-color="#d97706"/>
      <stop offset="100%" stop-color="#92400e"/>
    </linearGradient>
    <linearGradient id="saber-wood" x1="0" y1="0" x2="1" y2="1">
      <stop offset="0%" stop-color="#a16207"/>
      <stop offset="100%" stop-color="#451a03"/>
    </linearGradient>
    <linearGradient id="saber-leather" x1="0" y1="0" x2="0" y2="1">
      <stop offset="0%" stop-color="#78716c"/>
      <stop offset="100%" stop-color="#292524"/>
    </linearGradient>
    <radialGradient id="saber-gem" cx="40%" cy="35%" r="65%">
      <stop offset="0%" stop-color="#e9d5ff"/>
      <stop offset="45%" stop-color="#a78bfa"/>
      <stop offset="100%" stop-color="#5b21b6"/>
    </radialGradient>
    <filter id="saber-glow" x="-20%" y="-20%" width="140%" height="140%">
      <feGaussianBlur stdDeviation="0.6" result="b"/>
      <feMerge><feMergeNode in="b"/><feMergeNode in="SourceGraphic"/></feMerge>
    </filter>
  </defs>
  <rect width="32" height="32" rx="5" fill="url(#saber-bg)"/>
  <rect x="1" y="1" width="30" height="30" rx="4" fill="none" stroke="#b45309" stroke-opacity="0.35" stroke-width="0.5"/>
  <path d="M4 28 Q16 24 28 28" stroke="#000" stroke-opacity="0.25" stroke-width="1" fill="none"/>
  <path d="M19 5 C22 8 23 14 20 20 C18 23 14 24 12 22 L14 8 C15 6 17 5 19 5 Z" fill="url(#saber-steel)"/>
  <path d="M18 6 C20 8 21 13 19 18 C17.5 21 15 22 13.5 21 L15 9 C15.5 7 16.5 6 18 6 Z" fill="#e2e8f0" opacity="0.4"/>
  <rect x="10" y="21" width="8" height="2" rx="0.5" fill="url(#saber-gold)" transform="rotate(-8 14 22)"/>
  <rect x="11" y="23" width="5" height="4" fill="url(#saber-leather)"/>
  </svg>